<svg width="170" height="67" viewBox="0 0 170 67" fill="none" xmlns="http://www.w3.org/2000/svg">
<path d="M61.0558 17.9812C54.3043 18.6599 50.9116 23.4118 50.5529 28.023C60.9532 27.2033 64.7958 24.1804 64.4372 17.8274C63.2272 17.7496 62.5844 17.8274 61.0558 17.9812Z" fill="#E82A66"/>
<path d="M60.902 17.9812C53.2682 19.928 46.7104 26.7933 53.2682 35.2468C40.7673 36.2715 37.4883 18.4936 51.7825 17.9812H60.902Z" fill="#EA5072"/>
<path d="M46.5197 45.0058C53.2711 44.3271 56.6639 39.5751 57.0224 34.964C46.6221 35.7837 42.7797 38.8065 43.1383 45.1595C44.3483 45.2373 44.9909 45.1595 46.5197 45.0058Z" fill="#1478D5"/>
<path d="M46.6735 45.0058C54.3071 43.059 60.8651 36.1937 54.3071 27.7402C66.8082 26.7155 70.087 44.4934 55.793 45.0058H46.6735Z" fill="#258FF1"/>
<path d="M61.0558 17.9812C54.3043 18.6599 50.9116 23.4118 50.5529 28.023C60.9532 27.2033 64.7958 24.1804 64.4372 17.8274C63.2272 17.7496 62.5844 17.8274 61.0558 17.9812Z" fill="#E82A66"/>
<path d="M60.902 17.9812C53.2682 19.928 46.7104 26.7933 53.2682 35.2468C40.7673 36.2715 37.4883 18.4936 51.7825 17.9812H60.902Z" fill="#EA5072"/>
<path d="M46.5197 45.0058C53.2711 44.3271 56.6639 39.5751 57.0224 34.964C46.6221 35.7837 42.7797 38.8065 43.1383 45.1595C44.3483 45.2373 44.9909 45.1595 46.5197 45.0058Z" fill="#1478D5"/>
<path d="M46.6735 45.0058C54.3071 43.059 60.8651 36.1937 54.3071 27.7402C66.8082 26.7155 70.087 44.4934 55.793 45.0058H46.6735Z" fill="#258FF1"/>
<path d="M72.8709 38.9759C72.2902 38.9759 71.7319 38.8829 71.1959 38.6968C70.6674 38.5106 70.2579 38.2649 69.9675 37.9598L70.2914 37.3233C70.5742 37.6061 70.9502 37.8369 71.4192 38.0156C71.8882 38.1868 72.372 38.2724 72.8709 38.2724C73.5707 38.2724 74.0955 38.1459 74.4454 37.8928C74.7952 37.6323 74.9702 37.2973 74.9702 36.8878C74.9702 36.5751 74.8734 36.3258 74.6799 36.1396C74.4937 35.9534 74.263 35.8121 73.9875 35.7153C73.712 35.6111 73.3287 35.4994 72.8374 35.3803C72.2492 35.2314 71.7802 35.0899 71.4304 34.9559C71.0805 34.8144 70.779 34.6023 70.5259 34.3194C70.2802 34.0366 70.1574 33.6531 70.1574 33.1693C70.1574 32.7748 70.2615 32.4174 70.47 32.0973C70.6785 31.7698 70.9985 31.5091 71.4304 31.3156C71.8622 31.1221 72.3982 31.0253 73.0384 31.0253C73.485 31.0253 73.9205 31.0886 74.3449 31.2151C74.7767 31.3343 75.1489 31.5018 75.4615 31.7176L75.1824 32.3764C74.8549 32.1606 74.5049 32.0004 74.1327 31.8963C73.7605 31.7846 73.3957 31.7288 73.0384 31.7288C72.3535 31.7288 71.836 31.8628 71.4862 32.1308C71.1437 32.3913 70.9725 32.7301 70.9725 33.1469C70.9725 33.4596 71.0655 33.7128 71.2517 33.9063C71.4452 34.0924 71.6835 34.2376 71.9664 34.3418C72.2567 34.4386 72.6439 34.5464 73.1277 34.6656C73.7009 34.8071 74.1625 34.9484 74.5124 35.0899C74.8697 35.2239 75.1712 35.4324 75.4169 35.7153C75.6625 35.9908 75.7854 36.3666 75.7854 36.8431C75.7854 37.2376 75.6774 37.5988 75.4615 37.9263C75.253 38.2464 74.9292 38.5033 74.49 38.6968C74.0509 38.8829 73.511 38.9759 72.8709 38.9759ZM84.1183 31.0923V38.9089H83.3031V35.3021H78.4121V38.9089H77.5858V31.0923H78.4121V34.5763H83.3031V31.0923H84.1183ZM92.1972 38.1943V38.9089H86.6697V31.0923H92.0297V31.8069H87.4961V34.5874H91.5384V35.2909H87.4961V38.1943H92.1972ZM95.6582 31.8069H92.9112V31.0923H99.2315V31.8069H96.4845V38.9089H95.6582V31.8069ZM107.084 31.0923V38.9089H106.269V35.3021H101.378V38.9089H100.552V31.0923H101.378V34.5763H106.269V31.0923H107.084ZM109.636 31.0923H110.462V38.9089H109.636V31.0923ZM119.538 31.0923V38.9089H118.856L113.831 32.5663V38.9089H113.005V31.0923H113.686L118.722 37.4349V31.0923H119.538ZM124.512 35.2351L122.915 36.8543V38.9089H122.089V31.0923H122.915V35.8158L127.505 31.0923H128.454L125.07 34.6321L128.688 38.9089H127.706L124.512 35.2351Z" fill="white"/>
<path d="M96.9828 44.1815C96.7756 44.1815 96.5747 44.1521 96.3802 44.0933C96.1883 44.0345 96.0359 43.9563 95.9234 43.8591L96.0961 43.4714C96.2062 43.5585 96.3406 43.63 96.4992 43.6864C96.6604 43.7401 96.8216 43.767 96.9828 43.767C97.1824 43.767 97.3309 43.7351 97.4281 43.671C97.5279 43.607 97.5778 43.5225 97.5778 43.4177C97.5778 43.3409 97.5497 43.2783 97.4934 43.2296C97.4396 43.1785 97.3705 43.1387 97.2861 43.1106C97.2016 43.0825 97.0865 43.0504 96.9406 43.0146C96.7359 42.966 96.5695 42.9174 96.4416 42.8688C96.3161 42.8201 96.2074 42.7447 96.1153 42.6423C96.0258 42.5374 95.981 42.3966 95.981 42.2201C95.981 42.0716 96.0206 41.9372 96.1 41.817C96.1818 41.6942 96.3034 41.597 96.4646 41.5253C96.6285 41.4536 96.8281 41.4178 97.0634 41.4178C97.2273 41.4178 97.3885 41.4382 97.5471 41.4792C97.7057 41.5202 97.8427 41.579 97.9578 41.6558L97.8004 42.0435C97.6827 41.9744 97.5598 41.9219 97.4319 41.8861C97.3041 41.8503 97.1798 41.8324 97.0596 41.8324C96.8626 41.8324 96.7154 41.8657 96.6182 41.9322C96.5234 41.9986 96.4761 42.0869 96.4761 42.197C96.4761 42.2738 96.503 42.3364 96.5568 42.3851C96.6131 42.4338 96.6834 42.4722 96.7679 42.5003C96.8523 42.5284 96.9675 42.5605 97.1134 42.5962C97.313 42.6423 97.4768 42.691 97.6047 42.7421C97.7326 42.7908 97.8414 42.8662 97.931 42.9686C98.0231 43.071 98.0691 43.2092 98.0691 43.3831C98.0691 43.5316 98.0281 43.666 97.9463 43.7862C97.8669 43.9064 97.7455 44.0024 97.5816 44.0741C97.4178 44.1458 97.2182 44.1815 96.9828 44.1815ZM98.5179 42.0934H98.9977V44.1432H98.5179V42.0934ZM98.7597 41.7556C98.6727 41.7556 98.5997 41.7287 98.5409 41.675C98.4821 41.6186 98.4526 41.5495 98.4526 41.4677C98.4526 41.3859 98.4821 41.318 98.5409 41.2643C98.5997 41.2079 98.6727 41.1798 98.7597 41.1798C98.8468 41.1798 98.9197 41.2067 98.9785 41.2604C99.0373 41.3115 99.0668 41.3768 99.0668 41.4562C99.0668 41.5406 99.0373 41.6123 98.9785 41.6711C98.9222 41.7275 98.8492 41.7556 98.7597 41.7556ZM102.215 42.0703C102.473 42.0703 102.678 42.1459 102.829 42.2968C102.98 42.4453 103.055 42.6692 103.055 42.9686V44.1432H102.575V43.03C102.575 42.8508 102.536 42.7164 102.456 42.6269C102.377 42.5348 102.263 42.4888 102.115 42.4888C101.954 42.4888 101.824 42.5425 101.727 42.65C101.63 42.7548 101.581 42.9059 101.581 43.1029V44.1432H101.101V43.03C101.101 42.8508 101.062 42.7164 100.982 42.6269C100.903 42.5348 100.789 42.4888 100.641 42.4888C100.477 42.4888 100.347 42.5413 100.249 42.6461C100.155 42.751 100.107 42.9033 100.107 43.1029V44.1432H99.6274V42.0934H100.084V42.3544C100.161 42.2623 100.257 42.192 100.372 42.1433C100.487 42.0946 100.615 42.0703 100.756 42.0703C100.909 42.0703 101.045 42.0998 101.163 42.1586C101.283 42.215 101.378 42.2994 101.447 42.412C101.531 42.3045 101.64 42.2213 101.773 42.1625C101.906 42.1011 102.053 42.0703 102.215 42.0703ZM104.805 42.0703C105.004 42.0703 105.182 42.1138 105.338 42.2009C105.497 42.2879 105.621 42.4108 105.71 42.5694C105.8 42.728 105.845 42.911 105.845 43.1183C105.845 43.3256 105.8 43.5098 105.71 43.671C105.621 43.8296 105.497 43.9525 105.338 44.0395C105.182 44.1266 105.004 44.17 104.805 44.17C104.528 44.17 104.309 44.0779 104.148 43.8937V44.8878H103.668V42.0934H104.125V42.3621C104.205 42.2649 104.302 42.192 104.417 42.1433C104.535 42.0946 104.664 42.0703 104.805 42.0703ZM104.751 43.7593C104.927 43.7593 105.072 43.7005 105.185 43.5827C105.3 43.465 105.357 43.3102 105.357 43.1183C105.357 42.9263 105.3 42.7716 105.185 42.6538C105.072 42.536 104.927 42.4772 104.751 42.4772C104.636 42.4772 104.532 42.5041 104.44 42.5578C104.348 42.609 104.275 42.6833 104.221 42.7805C104.167 42.8777 104.14 42.9904 104.14 43.1183C104.14 43.2462 104.167 43.3589 104.221 43.4561C104.275 43.5532 104.348 43.6288 104.44 43.6825C104.532 43.7337 104.636 43.7593 104.751 43.7593ZM106.3 41.295H106.78V44.1432H106.3V41.295ZM107.41 42.0934H107.889V44.1432H107.41V42.0934ZM107.651 41.7556C107.564 41.7556 107.491 41.7287 107.433 41.675C107.374 41.6186 107.344 41.5495 107.344 41.4677C107.344 41.3859 107.374 41.318 107.433 41.2643C107.491 41.2079 107.564 41.1798 107.651 41.1798C107.738 41.1798 107.811 41.2067 107.87 41.2604C107.929 41.3115 107.958 41.3768 107.958 41.4562C107.958 41.5406 107.929 41.6123 107.87 41.6711C107.814 41.7275 107.741 41.7556 107.651 41.7556ZM109.352 41.6558C109.15 41.6558 109.049 41.7659 109.049 41.9859V42.1087H109.613V42.4926H109.064V44.1432H108.584V42.4926H108.247V42.1087H108.584V41.9782C108.584 41.7582 108.648 41.5855 108.776 41.46C108.904 41.3321 109.085 41.2681 109.317 41.2681C109.502 41.2681 109.646 41.3053 109.751 41.3794L109.617 41.7402C109.535 41.6839 109.447 41.6558 109.352 41.6558ZM111.893 42.0934L110.933 44.3082C110.844 44.5309 110.735 44.687 110.607 44.7765C110.479 44.8686 110.324 44.9147 110.142 44.9147C110.04 44.9147 109.939 44.8981 109.839 44.8648C109.739 44.8315 109.658 44.7854 109.593 44.7266L109.785 44.3735C109.831 44.4169 109.885 44.4515 109.947 44.4771C110.011 44.5028 110.075 44.5155 110.139 44.5155C110.223 44.5155 110.292 44.4937 110.346 44.4502C110.402 44.4068 110.453 44.3339 110.499 44.2314L110.534 44.1508L109.64 42.0934H110.139L110.783 43.6096L111.432 42.0934H111.893ZM112.193 42.0934H112.673V44.1432H112.193V42.0934ZM112.435 41.7556C112.347 41.7556 112.275 41.7287 112.216 41.675C112.157 41.6186 112.127 41.5495 112.127 41.4677C112.127 41.3859 112.157 41.318 112.216 41.2643C112.275 41.2079 112.347 41.1798 112.435 41.1798C112.522 41.1798 112.595 41.2067 112.653 41.2604C112.712 41.3115 112.742 41.3768 112.742 41.4562C112.742 41.5406 112.712 41.6123 112.653 41.6711C112.597 41.7275 112.524 41.7556 112.435 41.7556ZM114.465 42.0703C114.724 42.0703 114.931 42.1459 115.087 42.2968C115.243 42.4477 115.321 42.6718 115.321 42.9686V44.1432H114.841V43.03C114.841 42.8508 114.799 42.7164 114.715 42.6269C114.63 42.5348 114.51 42.4888 114.354 42.4888C114.177 42.4888 114.038 42.5425 113.936 42.65C113.833 42.7548 113.782 42.9072 113.782 43.1068V44.1432H113.302V42.0934H113.759V42.3582C113.838 42.2635 113.938 42.192 114.058 42.1433C114.179 42.0946 114.314 42.0703 114.465 42.0703ZM117.983 42.0934V43.8322C117.983 44.5539 117.615 44.9147 116.878 44.9147C116.681 44.9147 116.494 44.8891 116.317 44.8379C116.141 44.7893 115.995 44.7177 115.88 44.623L116.095 44.2622C116.184 44.3363 116.297 44.3953 116.432 44.4387C116.571 44.4848 116.71 44.5078 116.851 44.5078C117.076 44.5078 117.241 44.4567 117.346 44.3543C117.451 44.2519 117.503 44.0959 117.503 43.886V43.7785C117.422 43.868 117.322 43.9359 117.204 43.9819C117.086 44.028 116.957 44.051 116.816 44.051C116.622 44.051 116.445 44.01 116.287 43.9282C116.131 43.8438 116.006 43.726 115.914 43.5751C115.825 43.4241 115.78 43.2514 115.78 43.0569C115.78 42.8623 115.825 42.691 115.914 42.5425C116.006 42.3916 116.131 42.275 116.287 42.1932C116.445 42.1114 116.622 42.0703 116.816 42.0703C116.965 42.0703 117.099 42.0946 117.219 42.1433C117.342 42.192 117.445 42.2661 117.526 42.3659V42.0934H117.983ZM116.889 43.6442C117.071 43.6442 117.219 43.5904 117.334 43.4829C117.452 43.3728 117.511 43.2308 117.511 43.0569C117.511 42.8853 117.452 42.7459 117.334 42.6385C117.219 42.531 117.071 42.4772 116.889 42.4772C116.705 42.4772 116.554 42.531 116.436 42.6385C116.321 42.7459 116.263 42.8853 116.263 43.0569C116.263 43.2308 116.321 43.3728 116.436 43.4829C116.554 43.5904 116.705 43.6442 116.889 43.6442ZM120.266 41.8784H119.375V41.4562H121.656V41.8784H120.765V44.1432H120.266V41.8784ZM123.701 43.1298C123.701 43.1631 123.698 43.2104 123.693 43.2718H122.085C122.113 43.4227 122.186 43.5431 122.304 43.6326C122.424 43.7197 122.572 43.7631 122.749 43.7631C122.974 43.7631 123.16 43.689 123.306 43.5405L123.563 43.8361C123.471 43.9462 123.354 44.0292 123.214 44.0856C123.073 44.1419 122.914 44.17 122.738 44.17C122.512 44.17 122.314 44.1252 122.143 44.0357C121.971 43.9462 121.838 43.8219 121.743 43.6633C121.651 43.5021 121.605 43.3205 121.605 43.1183C121.605 42.9187 121.65 42.7395 121.74 42.5809C121.832 42.4197 121.958 42.2942 122.12 42.2047C122.281 42.1152 122.462 42.0703 122.665 42.0703C122.864 42.0703 123.042 42.1152 123.198 42.2047C123.357 42.2918 123.48 42.4158 123.567 42.577C123.656 42.7356 123.701 42.9199 123.701 43.1298ZM122.665 42.4542C122.511 42.4542 122.381 42.5003 122.273 42.5924C122.168 42.6819 122.104 42.8023 122.081 42.9532H123.244C123.224 42.8047 123.161 42.6845 123.056 42.5924C122.951 42.5003 122.821 42.4542 122.665 42.4542ZM125.102 44.17C124.89 44.17 124.699 44.1252 124.53 44.0357C124.362 43.9462 124.23 43.8219 124.135 43.6633C124.04 43.5021 123.993 43.3205 123.993 43.1183C123.993 42.9161 124.04 42.7356 124.135 42.577C124.23 42.4184 124.36 42.2942 124.527 42.2047C124.696 42.1152 124.887 42.0703 125.102 42.0703C125.304 42.0703 125.481 42.1114 125.632 42.1932C125.786 42.275 125.901 42.3928 125.978 42.5463L125.609 42.7613C125.55 42.6665 125.476 42.5962 125.386 42.5502C125.299 42.5015 125.203 42.4772 125.099 42.4772C124.919 42.4772 124.771 42.536 124.653 42.6538C124.536 42.769 124.477 42.9237 124.477 43.1183C124.477 43.3128 124.534 43.4688 124.649 43.5866C124.767 43.7017 124.917 43.7593 125.099 43.7593C125.203 43.7593 125.299 43.7363 125.386 43.6902C125.476 43.6415 125.55 43.57 125.609 43.4753L125.978 43.6902C125.898 43.8438 125.782 43.9628 125.628 44.0472C125.477 44.129 125.302 44.17 125.102 44.17ZM127.537 42.0703C127.795 42.0703 128.002 42.1459 128.158 42.2968C128.315 42.4477 128.393 42.6718 128.393 42.9686V44.1432H127.913V43.03C127.913 42.8508 127.871 42.7164 127.786 42.6269C127.702 42.5348 127.581 42.4888 127.425 42.4888C127.249 42.4888 127.109 42.5425 127.007 42.65C126.905 42.7548 126.853 42.9072 126.853 43.1068V44.1432H126.373V41.295H126.853V42.3314C126.933 42.2469 127.03 42.1829 127.145 42.1394C127.263 42.0934 127.393 42.0703 127.537 42.0703Z" fill="white"/>
</svg>
