<svg width="99" height="99" viewBox="0 0 99 99" fill="none" xmlns="http://www.w3.org/2000/svg">
<path d="M80.4375 92.8125H34.0312C32.3907 92.8109 30.8179 92.1584 29.6578 90.9984C28.4978 89.8384 27.8454 88.2655 27.8438 86.625V68.0625H34.0312V86.625H80.4375V18.5625H52.5938V12.375H80.4375C82.078 12.3766 83.6509 13.0291 84.8109 14.1891C85.9709 15.3491 86.6234 16.922 86.625 18.5625V86.625C86.6234 88.2655 85.9709 89.8384 84.8109 90.9984C83.6509 92.1584 82.078 92.8109 80.4375 92.8125Z" fill="#339C2A"/>
<path d="M52.5938 30.9375H74.25V37.125H52.5938V30.9375Z" fill="#339C2A"/>
<path d="M49.5 46.4062H74.25V52.5938H49.5V46.4062Z" fill="#339C2A"/>
<path d="M46.4062 61.875H74.25V68.0625H46.4062V61.875Z" fill="#339C2A"/>
<path d="M27.8438 58.7812C23.7424 58.7772 19.8103 57.1461 16.9102 54.246C14.0101 51.346 12.3791 47.4138 12.375 43.3125V9.28125H18.5625V43.3125C18.5625 45.774 19.5403 48.1348 21.2809 49.8753C23.0215 51.6159 25.3822 52.5938 27.8438 52.5938C30.3053 52.5938 32.666 51.6159 34.4066 49.8753C36.1472 48.1348 37.125 45.774 37.125 43.3125V15.4688C37.125 14.6482 36.7991 13.8613 36.2189 13.2811C35.6387 12.7009 34.8518 12.375 34.0312 12.375C33.2107 12.375 32.4238 12.7009 31.8436 13.2811C31.2634 13.8613 30.9375 14.6482 30.9375 15.4688V46.4062H24.75V15.4688C24.75 13.0072 25.7278 10.6465 27.4684 8.90592C29.209 7.16534 31.5697 6.1875 34.0312 6.1875C36.4928 6.1875 38.8535 7.16534 40.5941 8.90592C42.3347 10.6465 43.3125 13.0072 43.3125 15.4688V43.3125C43.3084 47.4138 41.6774 51.346 38.7773 54.246C35.8772 57.1461 31.9451 58.7772 27.8438 58.7812Z" fill="#339C2A"/>
</svg>
