<svg width="73" height="83" viewBox="0 0 73 83" fill="none" xmlns="http://www.w3.org/2000/svg">
<path d="M60.3799 24.3877C60.3799 11.1426 49.6484 0.411133 36.4033 0.411133C23.1582 0.411133 12.4267 11.1426 12.4267 24.3877C12.4267 32.3928 16.3519 39.4891 22.3848 43.8396C22.3461 43.859 22.3171 43.8686 22.2977 43.8783C17.9762 45.7056 14.0993 48.3256 10.7639 51.6707C7.42841 55.0062 4.81805 58.8927 2.99081 63.2239C1.20223 67.4585 0.245106 71.9541 0.148426 76.5754C0.138758 77.0104 0.486805 77.3682 0.921864 77.3682H6.71298C7.1287 77.3682 7.47675 77.0298 7.48641 76.6141C7.67977 69.1504 10.6672 62.1604 15.9556 56.8624C21.418 51.3807 28.6689 48.3643 36.4033 48.3643C49.6484 48.3643 60.3799 37.6328 60.3799 24.3877ZM36.4033 41.0166C27.2187 41.0166 19.7744 33.5723 19.7744 24.3877C19.7744 15.2031 27.2187 7.75879 36.4033 7.75879C45.5879 7.75879 53.0322 15.2031 53.0322 24.3877C53.0322 33.5723 45.5879 41.0166 36.4033 41.0166ZM46.5547 62.3828H72.0781C72.5035 62.3828 72.8515 62.0348 72.8515 61.6094V56.1953C72.8515 55.7699 72.5035 55.4219 72.0781 55.4219H55.0141L59.5774 49.6114C59.6838 49.4761 59.7418 49.3021 59.7418 49.1377C59.7418 48.7123 59.3937 48.3643 58.9683 48.3643H51.9494C51.4757 48.3643 51.0309 48.5866 50.7312 48.954L44.1087 57.3748C43.6833 57.9162 43.4513 58.593 43.4513 59.2891C43.4609 61.0003 44.8434 62.3828 46.5547 62.3828ZM69.7578 68.5703H44.2344C43.809 68.5703 43.4609 68.9184 43.4609 69.3438V74.7578C43.4609 75.1832 43.809 75.5312 44.2344 75.5312H61.2983L56.735 81.3417C56.6287 81.4771 56.5707 81.6511 56.5707 81.8154C56.5707 82.2408 56.9187 82.5889 57.3441 82.5889H64.3631C64.8368 82.5889 65.2815 82.3665 65.5812 81.9991L72.2038 73.5783C72.6292 73.0369 72.8612 72.3602 72.8612 71.6641C72.8515 69.9528 71.469 68.5703 69.7578 68.5703Z" fill="#339C2A"/>
</svg>
