<svg width="83" height="83" viewBox="0 0 83 83" fill="none" xmlns="http://www.w3.org/2000/svg">
<path fill-rule="evenodd" clip-rule="evenodd" d="M41.5 74.5C50.2521 74.5 58.6458 71.0232 64.8345 64.8345C71.0232 58.6458 74.5 50.2521 74.5 41.5C74.5 32.7479 71.0232 24.3542 64.8345 18.1655C58.6458 11.9768 50.2521 8.5 41.5 8.5C32.7479 8.5 24.3542 11.9768 18.1655 18.1655C11.9768 24.3542 8.5 32.7479 8.5 41.5C8.5 50.2521 11.9768 58.6458 18.1655 64.8345C24.3542 71.0232 32.7479 74.5 41.5 74.5ZM41.5 82.75C18.7176 82.75 0.25 64.2824 0.25 41.5C0.25 18.7176 18.7176 0.25 41.5 0.25C64.2824 0.25 82.75 18.7176 82.75 41.5C82.75 64.2824 64.2824 82.75 41.5 82.75ZM29.125 45.625C29.125 48.9071 30.4288 52.0547 32.7496 54.3754C35.0703 56.6962 38.2179 58 41.5 58C44.7821 58 47.9297 56.6962 50.2504 54.3754C52.5712 52.0547 53.875 48.9071 53.875 45.625H58C58 50.0011 56.2616 54.1979 53.1673 57.2923C50.0729 60.3866 45.8761 62.125 41.5 62.125C37.1239 62.125 32.9271 60.3866 29.8327 57.2923C26.7384 54.1979 25 50.0011 25 45.625H29.125ZM31.1875 37.375C32.8285 37.375 34.4023 36.7231 35.5627 35.5627C36.7231 34.4023 37.375 32.8285 37.375 31.1875C37.375 29.5465 36.7231 27.9727 35.5627 26.8123C34.4023 25.6519 32.8285 25 31.1875 25C29.5465 25 27.9727 25.6519 26.8123 26.8123C25.6519 27.9727 25 29.5465 25 31.1875C25 32.8285 25.6519 34.4023 26.8123 35.5627C27.9727 36.7231 29.5465 37.375 31.1875 37.375ZM51.8125 37.375C53.4535 37.375 55.0273 36.7231 56.1877 35.5627C57.3481 34.4023 58 32.8285 58 31.1875C58 29.5465 57.3481 27.9727 56.1877 26.8123C55.0273 25.6519 53.4535 25 51.8125 25C50.1715 25 48.5977 25.6519 47.4373 26.8123C46.2769 27.9727 45.625 29.5465 45.625 31.1875C45.625 32.8285 46.2769 34.4023 47.4373 35.5627C48.5977 36.7231 50.1715 37.375 51.8125 37.375Z" fill="#339C2A"/>
</svg>
