<svg width="75" height="75" viewBox="0 0 75 75" fill="none" xmlns="http://www.w3.org/2000/svg">
<path fill-rule="evenodd" clip-rule="evenodd" d="M11.5331 49.8915V74.625H46.8266V61.194H55.6809C56.2337 61.194 56.7617 61.0847 57.2422 60.8888L52.3335 57.069H42.7016V70.5H15.6561V48.2291L14.5011 47.0308C11.1186 43.5143 4.5 35.2952 4.5 25.0734C4.5 21.7116 5.76844 16.5615 9.58612 12.3066C12.9542 8.55075 18.6054 5.16 28.0187 4.58662V19.1273C26.3911 19.4357 24.8527 20.1034 23.5158 21.0816C22.1788 22.0598 21.0769 23.3239 20.2904 24.7819C19.5038 26.2399 19.0524 27.8549 18.969 29.5094C18.8857 31.1639 19.1724 32.8162 19.8084 34.3459C20.4444 35.8755 21.4136 37.244 22.6455 38.3517C23.8773 39.4594 25.3407 40.2783 26.9291 40.7488C28.5175 41.2193 30.1908 41.3296 31.8272 41.0716C33.4636 40.8135 35.0218 40.1937 36.3883 39.2572L65.4077 61.7859C65.2289 62.8171 65.4039 63.8784 65.9043 64.7975C66.4046 65.7166 67.201 66.4397 68.164 66.8492C69.1271 67.2588 70.2003 67.3308 71.2094 67.0536C72.2185 66.7763 73.1043 66.1662 73.723 65.3221C74.3416 64.478 74.6569 63.4496 74.6174 62.4039C74.578 61.3581 74.1863 60.3564 73.5058 59.5613C72.8253 58.7662 71.8961 58.2245 70.869 58.024C69.8418 57.8236 68.7771 57.9762 67.8476 58.4571L39.315 36.3037C40.3475 34.7736 40.9836 33.0108 41.1662 31.174C41.3488 29.3371 41.0722 27.4836 40.3611 25.7801C39.6501 24.0766 38.5269 22.5765 37.0926 21.4145C35.6582 20.2525 33.9577 19.4652 32.1437 19.1231V4.51444C37.3886 4.61137 41.0228 5.31469 43.7721 6.34594C46.6843 7.43906 48.8438 8.98388 51.0197 11.001L51.3126 11.2733C53.4452 13.2491 54.0804 13.839 54.4414 14.8001L63.1719 38.0445H55.6809V44.001L59.8059 47.2082V42.1695H63.1719C63.8385 42.1704 64.4954 42.0096 65.0862 41.7009C65.677 41.3921 66.1841 40.9447 66.564 40.3969C66.9438 39.8491 67.1851 39.2173 67.2672 38.5558C67.3492 37.8942 67.2695 37.2227 67.035 36.5987L58.3024 13.3481C57.5826 11.43 56.1904 10.1512 54.4373 8.5425C54.2326 8.35462 54.0284 8.16624 53.8247 7.97737C48.9469 3.45225 43.3967 0.375 30.8959 0.375C6.57488 0.375 0.375 16.6172 0.375 25.0734C0.375 36.9679 7.97119 46.1955 11.5331 49.8915ZM30.0812 37.0875C31.0021 37.0876 31.914 36.9064 32.7648 36.5541C33.6157 36.2018 34.3888 35.6854 35.0401 35.0343C35.6913 34.3832 36.208 33.6103 36.5605 32.7595C36.9131 31.9088 37.0946 30.9969 37.0947 30.076C37.0949 29.1551 36.9136 28.2432 36.5613 27.3924C36.209 26.5415 35.6926 25.7684 35.0415 25.1171C34.3905 24.4659 33.6175 23.9492 32.7667 23.5967C31.916 23.2442 31.0041 23.0626 30.0832 23.0625C28.2234 23.0625 26.4398 23.8013 25.1247 25.1164C23.8096 26.4315 23.0707 28.2152 23.0707 30.075C23.0707 31.9348 23.8096 33.7185 25.1247 35.0336C26.4398 36.3487 28.2234 37.0875 30.0832 37.0875H30.0812Z" fill="#339C2A"/>
</svg>
