<svg width="71" height="99" viewBox="0 0 71 99" fill="none" xmlns="http://www.w3.org/2000/svg">
<path d="M69.1469 26.2594L44.8656 1.97812C44.1719 1.28437 43.4781 0.9375 42.4375 0.9375H7.75C3.93437 0.9375 0.8125 4.05937 0.8125 7.875V91.125C0.8125 94.9406 3.93437 98.0625 7.75 98.0625H63.25C67.0656 98.0625 70.1875 94.9406 70.1875 91.125V28.6875C70.1875 27.6469 69.8406 26.9531 69.1469 26.2594ZM42.4375 9.2625L61.8625 28.6875H42.4375V9.2625ZM63.25 91.125H7.75V7.875H35.5V28.6875C35.5 32.5031 38.6219 35.625 42.4375 35.625H63.25V91.125Z" fill="#339C2A"/>
</svg>
