<svg width="85" height="99" viewBox="0 0 85 99" fill="none" xmlns="http://www.w3.org/2000/svg">
<path d="M42.5 98.0625L21.077 86.6399C14.9697 83.3908 9.86241 78.5399 6.30331 72.6078C2.74421 66.6758 0.86764 59.8866 0.874991 52.9688V7.875C0.876828 6.03562 1.60833 4.27211 2.90897 2.97148C4.2096 1.67084 5.97312 0.939337 7.81249 0.9375H77.1875C79.0269 0.939337 80.7904 1.67084 82.091 2.97148C83.3917 4.27211 84.1232 6.03562 84.125 7.875V52.9688C84.1323 59.8866 82.2558 66.6758 78.6967 72.6078C75.1376 78.5399 70.0303 83.3908 63.923 86.6399L42.5 98.0625ZM7.81249 7.875V52.9688C7.80673 58.6291 9.34257 64.1841 12.2551 69.0376C15.1677 73.891 19.347 77.8597 24.3446 80.5176L42.5 90.1988L60.6554 80.521C65.6535 77.8629 69.8331 73.8937 72.7457 69.0396C75.6583 64.1854 77.1939 58.6297 77.1875 52.9688V7.875H7.81249Z" fill="#339C2A"/>
</svg>
