<svg width="111" height="111" viewBox="0 0 111 111" fill="none" xmlns="http://www.w3.org/2000/svg">
<path d="M56.7904 7.72158C55.9621 7.38966 55.0379 7.38966 54.2096 7.72158L12.8066 24.2814L29.4844 30.9483L72.1777 13.8751L56.7904 7.72158ZM81.5156 17.6145L38.8223 34.6876L55.5 41.3546L98.1934 24.2814L81.5156 17.6145ZM104.062 29.4082L58.9688 47.4457V102.405L104.062 84.3671V29.4151V29.4082ZM52.0312 102.412V47.4388L6.9375 29.4082V84.374L52.0312 102.412ZM51.6358 1.27664C54.1164 0.284576 56.8836 0.284576 59.3642 1.27664L108.822 21.0624C109.465 21.3201 110.016 21.7644 110.404 22.3381C110.792 22.9118 111 23.5887 111 24.2814V84.374C110.999 85.7603 110.583 87.1145 109.805 88.262C109.027 89.4095 107.924 90.2977 106.636 90.812L56.7904 110.75C55.9621 111.082 55.0379 111.082 54.2096 110.75L4.37063 90.812C3.08199 90.2988 1.97679 89.4111 1.1977 88.2635C0.418621 87.1159 0.00143141 85.7611 0 84.374L0 24.2814C0.000161227 23.5887 0.207735 22.9118 0.59598 22.3381C0.984225 21.7644 1.53536 21.3201 2.17838 21.0624L51.6358 1.27664Z" fill="#339C2A"/>
</svg>
