<svg width="111" height="111" viewBox="0 0 111 111" fill="none" xmlns="http://www.w3.org/2000/svg">
<path d="M55.5 6.9375C45.384 6.94943 35.6858 10.9733 28.5327 18.1264C21.3796 25.2795 17.3557 34.9777 17.3438 45.0938C17.3317 53.3606 20.032 61.4031 25.0305 67.9875C25.0305 67.9875 26.0712 69.3577 26.2411 69.5554L55.5 104.062L84.7728 69.538C84.9254 69.3542 85.9695 67.9875 85.9695 67.9875L85.973 67.9771C90.9691 61.3955 93.6681 53.3568 93.6563 45.0938C93.6443 34.9777 89.6205 25.2795 82.4674 18.1264C75.3143 10.9733 65.616 6.94943 55.5 6.9375ZM55.5 58.9688C52.7558 58.9688 50.0732 58.155 47.7915 56.6304C45.5098 55.1058 43.7314 52.9388 42.6812 50.4035C41.631 47.8682 41.3563 45.0784 41.8916 42.3869C42.427 39.6954 43.7485 37.2231 45.6889 35.2826C47.6294 33.3422 50.1017 32.0207 52.7932 31.4854C55.4846 30.95 58.2744 31.2248 60.8098 32.2749C63.3451 33.3251 65.5121 35.1035 67.0367 37.3852C68.5613 39.6669 69.375 42.3495 69.375 45.0938C69.3704 48.7722 67.9071 52.2987 65.3061 54.8998C62.705 57.5009 59.1785 58.9642 55.5 58.9688Z" fill="#339C2A"/>
</svg>
