<svg width="89" height="102" viewBox="0 0 89 102" fill="none" xmlns="http://www.w3.org/2000/svg">
<path d="M77.8 1.10484L11.2 27.7448C5.095 29.9648 0.0999985 37.7348 0.0999985 44.3948V92.6798C0.0999985 99.3398 5.095 102.67 11.2 100.45L77.8 73.8098C83.905 71.5898 88.9 63.8198 88.9 57.1598V8.87484C88.9 2.21484 83.905 -1.11516 77.8 1.10484ZM81.13 15.5348L47.83 67.1498L10.645 42.1748C10.09 41.6198 8.425 39.9548 9.535 38.2898C10.645 36.0698 13.42 37.1798 13.42 37.1798L48.385 49.9448C48.385 49.9448 75.025 14.9798 76.69 12.7598C77.245 11.6498 78.91 11.0948 80.575 12.2048C82.24 13.3148 81.685 14.9798 81.13 15.5348Z" fill="#339C2A"/>
</svg>
