<svg width="91" height="91" viewBox="0 0 91 91" fill="none" xmlns="http://www.w3.org/2000/svg">
<path d="M85.9977 14.9533L74.4532 3.41973C73.6389 2.60179 72.6709 1.95281 71.605 1.51008C70.5391 1.06734 69.3962 0.839567 68.242 0.839844C65.8897 0.839844 63.6784 1.76123 62.0199 3.41973L49.5975 15.8422C48.7795 16.6565 48.1306 17.6245 47.6878 18.6904C47.2451 19.7563 47.0173 20.8992 47.0176 22.0534C47.0176 24.4057 47.939 26.617 49.5975 28.2755L58.6813 37.3593C56.5549 42.046 53.5987 46.3096 49.9552 49.9443C46.3208 53.5967 42.0576 56.5637 37.3701 58.7029L28.2863 49.6191C27.472 48.8012 26.504 48.1522 25.4381 47.7095C24.3722 47.2668 23.2293 47.039 22.0751 47.0393C19.7229 47.0393 17.5115 47.9606 15.853 49.6191L3.41973 62.0308C2.60079 62.8466 1.95126 63.8164 1.5085 64.8842C1.06574 65.952 0.8385 67.0969 0.83985 68.2528C0.83985 70.6051 1.76124 72.8164 3.41973 74.4749L14.9425 85.9977C17.5874 88.6534 21.2404 90.1602 24.991 90.1602C25.7823 90.1602 26.5411 90.0951 27.2891 89.965C41.9012 87.5586 56.394 79.7864 68.0902 68.1011C79.7756 56.4266 87.5369 41.9445 89.9759 27.2891C90.713 22.8122 89.2279 18.2053 85.9977 14.9533Z" fill="#339C2A"/>
</svg>
